<svg xmlns="http://www.w3.org/2000/svg" width="100" height="25" viewBox="0 0 100 25" fill="none">
<g clip-path="url(#kvbxqmnetl-clip0_0_5)">
<path d="M92.285 15.4481H99.1023C99.5974 15.4481 99.997 15.0531 99.997 14.5637V10.4363C99.997 9.94693 99.5974 9.55189 99.1023 9.55189H92.1836C91.3635 9.55189 90.6626 8.88856 90.6925 8.08078C90.7104 7.60318 90.9609 7.28774 91.11 7.13738C91.2651 6.98408 91.605 6.7217 92.121 6.7217H99.0994C99.5944 6.7217 99.994 6.32665 99.994 5.83726V1.70991C99.994 1.22052 99.5944 0.825472 99.0994 0.825472H92.121C90.7581 0.825472 89.4101 1.17335 88.256 1.89269C85.9537 3.32842 84.6684 5.72229 84.728 8.30483C84.8175 12.3025 88.2381 15.4481 92.282 15.4481H92.285Z" fill="#2F3031"></path>
<path d="M34.8384 2.18161C33.3979 0.757668 31.4804 -0.0176859 29.4405 2.78259e-06C25.2773 0.0353801 21.973 3.50236 21.973 7.62088V17.4794C21.973 18.3314 21.2692 19.1008 20.4104 19.1038C19.9869 19.1038 19.5873 18.9446 19.289 18.6498L1.5269 1.0908C0.963259 0.533611 0 0.928658 0 1.7158V7.33196C0 7.70637 0.152094 8.06604 0.420494 8.33137L15.0722 22.8155C16.5126 24.2394 18.4302 25.0147 20.47 24.9971C24.6332 24.9617 27.9375 21.4947 27.9375 17.3762V7.52064C27.9375 6.66864 28.6413 5.89918 29.5002 5.89623C29.9237 5.89623 30.3233 6.05543 30.6215 6.35024L48.3836 23.9092C48.9473 24.4664 49.9105 24.0714 49.9105 23.2842V17.668C49.9105 17.2936 49.7584 16.934 49.49 16.6686L34.8384 2.18161Z" fill="#2F3031"></path>
<path d="M57.1275 0.825472H52.9524C52.4583 0.825472 52.0577 1.22145 52.0577 1.70991V23.2901C52.0577 23.7786 52.4583 24.1745 52.9524 24.1745H57.1275C57.6216 24.1745 58.0222 23.7786 58.0222 23.2901V1.70991C58.0222 1.22145 57.6216 0.825472 57.1275 0.825472Z" fill="#2F3031"></path>
<path d="M99.1053 18.2636H91.3515C90.0364 18.2636 88.7988 17.7565 87.8653 16.8367L73.0437 2.1816C71.6032 0.760613 69.6857 -0.0176887 67.6458 0C63.4797 0.0353774 60.1754 3.50236 60.1754 7.61793V23.2871C60.1754 23.7765 60.575 24.1716 61.07 24.1716H65.2451C65.7402 24.1716 66.1398 23.7765 66.1398 23.2871V7.52064C66.1398 6.67158 66.8406 5.90212 67.7025 5.89623C68.126 5.89623 68.5256 6.05543 68.8268 6.35024L83.6485 21.0024C85.7062 23.0366 88.4409 24.1568 91.3515 24.1568H99.1053C99.6004 24.1568 100 23.7618 100 23.2724V19.145C100 18.6557 99.6004 18.2606 99.1053 18.2606V18.2636Z" fill="#2F3031"></path>
<path d="M35.3066 15.2329C32.0619 14.829 29.3332 17.5265 29.7417 20.7341C30.0191 22.9186 31.8054 24.6845 34.0153 24.9617C37.2599 25.3656 39.9887 22.668 39.5801 19.4605C39.3028 17.2759 37.5164 15.51 35.3036 15.2329H35.3066Z" fill="#2F3031"></path>
</g>
<defs>
<clipPath id="kvbxqmnetl-clip0_0_5">
<rect width="100" height="25" fill="white"></rect>
</clipPath>
</defs>
</svg> 
